<svg xmlns="http://www.w3.org/2000/svg" width="219.13" height="80.734" viewBox="0 0 219.13 80.734"><g id="Group_4793" data-name="Group 4793" transform="translate(-2923.066 3255)"><path id="Path_5653" data-name="Path 5653" d="M3540.628,17.381c0-4.1,1.456-8.281,5.915-8.281,2.911,0,4.549,1,4.549,4.1a15.359,15.359,0,0,1-.272,2.73l-.547,2.73h9.555l.273-1.183a27.439,27.439,0,0,0,.728-5.733c0-7.644-4.642-11.739-13.65-11.739-10.464,0-16.652,7.826-16.652,18.291,0,5.733,2.458,11.375,7.553,17.107,3.912,4.55,5.55,8.19,5.55,12.1,0,4.459-1.365,8.918-6.187,8.918-2.912,0-4.733-.91-4.733-4.186a12.648,12.648,0,0,1,.274-2.457l.728-3.913h-9.555l-.455,2.184a26.133,26.133,0,0,0-.637,5.642c0,7.826,4.459,11.83,13.741,11.83,10.828,0,16.925-8.008,16.925-18.836,0-6.1-2.547-11.557-7.552-17.472-3.913-4.55-5.551-8.19-5.551-11.829" transform="translate(-600 -3255)" fill="#e5561f"></path><path id="Path_5654" data-name="Path 5654" d="M3698.185,54.076l10.737-50.321h-9.828l-10.646,49.958c-.819,4.095-2.639,5.551-5.369,5.551-3.094,0-5.006-1.092-5.006-4.368a10.2,10.2,0,0,1,.273-2.184l10.465-48.956h-10.192l-10.1,47.137a23.917,23.917,0,0,0-.546,4.914c0,8.372,5.734,12.558,14.469,12.558,8.463,0,13.833-5.1,15.743-14.287" transform="translate(-709.782 -3257.845)" fill="#e5561f"></path><path id="Path_5655" data-name="Path 5655" d="M3811.708,15.13c0-7.28-4.46-11.375-12.831-11.375h-14.741l-13.386,62.88c-2.3,7.99-11.132,4.992-12.508,10.978a4.843,4.843,0,0,0-.121,1.012c0,.008,0,.016,0,.024a4.871,4.871,0,0,0,9.618,1.147l1.576-6.856c0-.016,1.266-5.486,5.7-5.488h11.939c10.01,0,15.2-5.187,17.381-15.379l6.824-32.213a22.931,22.931,0,0,0,.546-4.732m-10.556,3.549-7.1,33.123c-1,4.55-3.639,6.552-6.825,6.552h-4.458l9.646-45.5h5.188c2.547,0,3.821.819,3.821,3.367a14.337,14.337,0,0,1-.273,2.457" transform="translate(-778.078 -3257.845)" fill="#e5561f"></path><path id="Path_5656" data-name="Path 5656" d="M3951.795,67.452h9.646l4.368-12.466h11.283l-.909,12.466h10.192l3.184-63.7h-13.831Zm25.844-21.111H3968.9l11.01-31.03Z" transform="translate(-924.805 -3257.844)" fill="#e5561f"></path><path id="Path_5657" data-name="Path 5657" d="M4154.014,19.68a21.444,21.444,0,0,0,.546-4.641c0-7.189-4.367-11.284-12.375-11.284h-14.651l-13.559,63.7h10.283l5.459-25.934h5.1c10.466,0,15.653-5.187,17.836-15.379ZM4144,18.587l-1.547,7.462c-.91,4.55-3,6.37-6.642,6.37h-4.1l4.1-19.564h4.822c2.185,0,3.639.819,3.639,3.458a11.673,11.673,0,0,1-.272,2.275" transform="translate(-1047.672 -3257.845)" fill="#e5561f"></path><path id="Path_5658" data-name="Path 5658" d="M4287.846,3.755h-14.652l-13.559,63.7h10.283l5.46-25.934h5.1c10.464,0,15.652-5.187,17.835-15.379l1.365-6.46a21.414,21.414,0,0,0,.546-4.641c0-7.189-4.367-11.284-12.374-11.284m1.818,14.832-1.547,7.462c-.911,4.55-3,6.37-6.643,6.37h-4.094l4.094-19.564h4.823c2.184,0,3.641.819,3.641,3.458a11.76,11.76,0,0,1-.273,2.275" transform="translate(-1158.024 -3257.845)" fill="#e5561f"></path></g></svg>