<svg xmlns="http://www.w3.org/2000/svg" width="207.797" height="75.151" viewBox="0 0 207.797 75.151"><g id="Group_4784" data-name="Group 4784" transform="translate(-2923.066 3255)"><path id="Path_5653" data-name="Path 5653" d="M3539.72,16.179c0-3.812,1.38-7.709,5.609-7.709,2.761,0,4.314.932,4.314,3.812a14.033,14.033,0,0,1-.258,2.541l-.518,2.541h9.061l.26-1.1a25.137,25.137,0,0,0,.69-5.336c0-7.115-4.4-10.927-12.944-10.927-9.923,0-15.791,7.285-15.791,17.026,0,5.337,2.33,10.588,7.162,15.925,3.71,4.235,5.263,7.624,5.263,11.266,0,4.15-1.294,8.3-5.867,8.3-2.761,0-4.487-.847-4.487-3.9a11.552,11.552,0,0,1,.259-2.287l.69-3.643H3524.1l-.431,2.033a23.893,23.893,0,0,0-.6,5.252c0,7.285,4.229,11.012,13.031,11.012,10.268,0,16.049-7.454,16.049-17.534,0-5.675-2.416-10.758-7.162-16.263-3.71-4.235-5.263-7.623-5.263-11.011" transform="translate(-600 -3255)" fill="#fff"></path><path id="Path_5654" data-name="Path 5654" d="M3696.622,50.6,3706.8,3.755h-9.319l-10.1,46.5c-.776,3.812-2.5,5.167-5.091,5.167-2.934,0-4.747-1.017-4.747-4.066a9.3,9.3,0,0,1,.259-2.033l9.924-45.571h-9.665l-9.579,43.877a21.838,21.838,0,0,0-.518,4.574c0,7.793,5.436,11.689,13.72,11.689,8.025,0,13.116-4.743,14.928-13.3" transform="translate(-711.598 -3257.908)" fill="#fff"></path><path id="Path_5655" data-name="Path 5655" d="M3808.937,14.343c0-6.777-4.229-10.588-12.167-10.588H3782.79L3770.1,62.287c-2.18,7.437-10.557,4.647-11.861,10.219a4.471,4.471,0,0,0-.115.942c0,.008,0,.014,0,.023a4.551,4.551,0,0,0,3.582,4.473,4.624,4.624,0,0,0,5.539-3.4l1.494-6.382c0-.014,1.2-5.106,5.406-5.108h11.322c9.492,0,14.411-4.828,16.482-14.315l6.472-29.986a20.938,20.938,0,0,0,.518-4.4m-10.01,3.3L3792.2,48.479c-.949,4.235-3.451,6.1-6.472,6.1H3781.5l9.146-42.353h4.919c2.416,0,3.624.762,3.624,3.134a13.1,13.1,0,0,1-.259,2.287" transform="translate(-781.024 -3257.908)" fill="#fff"></path><path id="Path_5656" data-name="Path 5656" d="M3951.795,63.048h9.147l4.142-11.6h10.7l-.863,11.6h9.665l3.02-59.294h-13.116ZM3976.3,43.4h-8.285l10.441-28.885Z" transform="translate(-930.179 -3257.907)" fill="#fff"></path><path id="Path_5657" data-name="Path 5657" d="M4151.943,18.578a19.627,19.627,0,0,0,.518-4.32c0-6.692-4.142-10.5-11.735-10.5h-13.894l-12.857,59.293h9.751l5.177-24.141h4.832c9.925,0,14.843-4.828,16.915-14.315Zm-9.492-1.017-1.466,6.946c-.864,4.235-2.848,5.929-6.3,5.929H4130.8l3.883-18.212h4.573c2.071,0,3.451.762,3.451,3.219a10.667,10.667,0,0,1-.259,2.117" transform="translate(-1055.08 -3257.908)" fill="#fff"></path><path id="Path_5658" data-name="Path 5658" d="M4286.386,3.755h-13.893l-12.858,59.293h9.751l5.177-24.141h4.832c9.924,0,14.843-4.828,16.914-14.315l1.294-6.014a19.6,19.6,0,0,0,.518-4.32c0-6.692-4.142-10.5-11.735-10.5m1.725,13.807-1.467,6.946c-.863,4.235-2.847,5.929-6.3,5.929h-3.883l3.883-18.212h4.573c2.071,0,3.452.762,3.452,3.219a10.709,10.709,0,0,1-.259,2.117" transform="translate(-1167.258 -3257.908)" fill="#fff"></path></g></svg>