<svg xmlns="http://www.w3.org/2000/svg" xmlns:xlink="http://www.w3.org/1999/xlink" width="277" height="75" viewBox="0 0 277 75"><defs><clipPath id="clip-path"><rect id="Rectangle_802" data-name="Rectangle 802" width="277" height="75" transform="translate(-1126 7547)" fill="#fff"></rect></clipPath></defs><g id="Mask_Group_9" data-name="Mask Group 9" transform="translate(1126 -7547)" clip-path="url(#clip-path)"><g id="Group_4751" data-name="Group 4751" transform="translate(-1113.599 7561.466)"><path id="Path_25" data-name="Path 25" d="M298.638,315.127l27.584,15.079-7.711,7.485-22.631-22.165a2.317,2.317,0,0,1,2.759-.4" transform="translate(-295.201 -314.841)" fill="#0ae577"></path><path id="Path_26" data-name="Path 26" d="M310.482,345.81l-22.894,22.223a2.3,2.3,0,0,1-.416-1.333V325.285a2.281,2.281,0,0,1,.678-1.64Z" transform="translate(-287.172 -322.959)" fill="#40c3ff"></path><path id="Path_27" data-name="Path 27" d="M604.435,517.731a2.322,2.322,0,0,1,0,4.077l-10.107,5.523-7.909-7.745,7.711-7.485Z" transform="translate(-563.109 -496.735)" fill="#ffc826"></path><path id="Path_28" data-name="Path 28" d="M323.316,615.94l-27.781,15.185a2.323,2.323,0,0,1-3.021-.707L315.408,608.2Z" transform="translate(-292.098 -585.344)" fill="#ff3945"></path><path id="Path_29" data-name="Path 29" d="M1109.892,419.942a24.163,24.163,0,0,1-7.967,1.424c-3.926,0-7.158-1-9.7-3.425a13.344,13.344,0,0,1-3.618-9.66c.038-7.736,5.349-13.393,14.047-13.393a16.036,16.036,0,0,1,6.466,1.193l-.808,2.733a13.447,13.447,0,0,0-5.734-1.116c-6.312,0-10.429,3.925-10.429,10.43,0,6.581,3.964,10.468,10.006,10.468a10.92,10.92,0,0,0,4.464-.693v-7.736h-5.272v-2.694h8.544Z" transform="translate(-1026.183 -388.653)" fill="#dcdcdc"></path><path id="Path_30" data-name="Path 30" d="M1099.079,418.759c-4.176,0-7.4-1.142-9.865-3.492a13.618,13.618,0,0,1-3.692-9.834,13.43,13.43,0,0,1,3.848-9.769,14.489,14.489,0,0,1,10.44-3.865,16.988,16.988,0,0,1,6.57,1.217l.184.089-.944,3.192-.251-.111a13.415,13.415,0,0,0-5.637-1.1c-6.285,0-10.189,3.9-10.189,10.189,0,6.309,3.742,10.228,9.766,10.228a10.92,10.92,0,0,0,4.224-.606V407.56h-5.273v-3.175h9.025v12.879l-.159.057a24.217,24.217,0,0,1-8.048,1.438m.731-26.478a14.019,14.019,0,0,0-10.1,3.727,12.959,12.959,0,0,0-3.7,9.427,13.138,13.138,0,0,0,3.544,9.486c2.367,2.259,5.485,3.358,9.531,3.358a23.694,23.694,0,0,0,7.726-1.353V404.866h-8.063v2.213h5.272V415.2l-.133.066a11.366,11.366,0,0,1-4.572.718,10.08,10.08,0,0,1-7.441-2.839,11,11,0,0,1-2.805-7.87,9.94,9.94,0,0,1,10.67-10.67,13.828,13.828,0,0,1,5.581,1.028l.672-2.273a16.379,16.379,0,0,0-6.176-1.084" transform="translate(-1023.335 -385.805)" fill="#dcdcdc"></path><path id="Path_31" data-name="Path 31" d="M1429.43,496.368c0,6.889-4.772,9.891-9.275,9.891-5.042,0-8.929-3.695-8.929-9.583,0-6.235,4.079-9.891,9.236-9.891,5.349,0,8.967,3.887,8.967,9.583m-14.778.192c0,4.08,2.348,7.158,5.657,7.158,3.233,0,5.657-3.04,5.657-7.235,0-3.156-1.578-7.158-5.58-7.158s-5.734,3.695-5.734,7.235" transform="translate(-1323.669 -473.392)" fill="#dcdcdc"></path><path id="Path_32" data-name="Path 32" d="M1417.306,503.653c-5.4,0-9.169-4.04-9.169-9.823a10.349,10.349,0,0,1,2.754-7.452,9.3,9.3,0,0,1,6.724-2.679,8.852,8.852,0,0,1,6.665,2.732,11.246,11.246,0,0,1-.485,14.8,9.533,9.533,0,0,1-6.489,2.425m.308-19.474a8.827,8.827,0,0,0-6.381,2.535,9.881,9.881,0,0,0-2.615,7.115,9.59,9.59,0,0,0,2.506,6.833,8.474,8.474,0,0,0,6.182,2.51,9.053,9.053,0,0,0,6.163-2.3,9.644,9.644,0,0,0,2.871-7.351c0-5.588-3.507-9.342-8.727-9.342m-.154,16.934a5.339,5.339,0,0,1-4.26-2.142,8.541,8.541,0,0,1-1.638-5.257c0-3.721,1.847-7.476,5.975-7.476a5.142,5.142,0,0,1,4.494,2.506,9.281,9.281,0,0,1,1.328,4.893,8.64,8.64,0,0,1-1.668,5.339,5.325,5.325,0,0,1-4.23,2.136m.077-14.394c-3.8,0-5.494,3.513-5.494,6.995,0,4.008,2.278,6.918,5.417,6.918a4.854,4.854,0,0,0,3.852-1.953,8.159,8.159,0,0,0,1.565-5.042,8.793,8.793,0,0,0-1.251-4.633,4.7,4.7,0,0,0-4.089-2.285" transform="translate(-1320.82 -470.545)" fill="#dcdcdc"></path><path id="Path_33" data-name="Path 33" d="M1700.668,496.368c0,6.889-4.772,9.891-9.275,9.891-5.042,0-8.929-3.695-8.929-9.583,0-6.235,4.08-9.891,9.237-9.891,5.35,0,8.967,3.887,8.967,9.583m-14.779.192c0,4.08,2.348,7.158,5.657,7.158,3.233,0,5.657-3.04,5.657-7.235,0-3.156-1.578-7.158-5.58-7.158s-5.734,3.695-5.734,7.235" transform="translate(-1573.779 -473.392)" fill="#dcdcdc"></path><path id="Path_34" data-name="Path 34" d="M1688.545,503.653c-5.4,0-9.169-4.04-9.169-9.823a10.349,10.349,0,0,1,2.753-7.452,9.3,9.3,0,0,1,6.724-2.679,8.852,8.852,0,0,1,6.665,2.732,11.247,11.247,0,0,1-.485,14.8,9.533,9.533,0,0,1-6.489,2.425m.308-19.474a8.827,8.827,0,0,0-6.381,2.535,9.88,9.88,0,0,0-2.615,7.115,9.59,9.59,0,0,0,2.506,6.833,8.474,8.474,0,0,0,6.182,2.51,9.053,9.053,0,0,0,6.163-2.3,9.644,9.644,0,0,0,2.871-7.351c0-5.588-3.507-9.342-8.727-9.342m-.154,16.934a5.339,5.339,0,0,1-4.259-2.142,8.54,8.54,0,0,1-1.639-5.257c0-3.721,1.847-7.476,5.975-7.476a5.142,5.142,0,0,1,4.494,2.506,9.281,9.281,0,0,1,1.328,4.893,8.641,8.641,0,0,1-1.668,5.339,5.326,5.326,0,0,1-4.23,2.136m.077-14.394c-3.8,0-5.494,3.513-5.494,6.995,0,4.008,2.278,6.918,5.417,6.918a4.853,4.853,0,0,0,3.852-1.953,8.159,8.159,0,0,0,1.565-5.042,8.792,8.792,0,0,0-1.251-4.633,4.7,4.7,0,0,0-4.089-2.285" transform="translate(-1570.931 -470.545)" fill="#dcdcdc"></path><path id="Path_35" data-name="Path 35" d="M1971.1,487.209c-.077,1.347-.154,2.848-.154,5.119v10.814c0,4.272-.847,6.889-2.656,8.505a9.874,9.874,0,0,1-6.773,2.232,12.023,12.023,0,0,1-6.2-1.539l.847-2.579a10.5,10.5,0,0,0,5.465,1.463c3.464,0,6-1.809,6-6.5v-2.078h-.077a6.65,6.65,0,0,1-5.927,3.117c-4.618,0-7.928-3.926-7.928-9.083,0-6.312,4.118-9.891,8.39-9.891a6.2,6.2,0,0,1,5.811,3.233h.077l.154-2.809Zm-3.5,7.351a4.824,4.824,0,0,0-.192-1.54,4.879,4.879,0,0,0-4.734-3.579c-3.233,0-5.542,2.733-5.542,7.043,0,3.656,1.847,6.7,5.5,6.7a4.951,4.951,0,0,0,4.7-3.464,5.9,5.9,0,0,0,.269-1.809Z" transform="translate(-1823.889 -473.393)" fill="#dcdcdc"></path><path id="Path_36" data-name="Path 36" d="M1958.666,511.273a12.137,12.137,0,0,1-6.33-1.58l-.152-.1,1-3.044.26.163a10.219,10.219,0,0,0,5.338,1.426c4.764,0,5.763-3.406,5.763-6.264v-1.4a7,7,0,0,1-5.763,2.683,7.661,7.661,0,0,1-5.878-2.691,10.1,10.1,0,0,1-2.291-6.632,10.735,10.735,0,0,1,2.657-7.476,8.1,8.1,0,0,1,5.973-2.655,6.521,6.521,0,0,1,5.684,2.8l.13-2.373h3.446l-.015.254c-.081,1.415-.154,2.871-.154,5.1v10.814c0,4.316-.844,6.994-2.736,8.685-1.115,1.044-3.227,2.293-6.934,2.293m-5.91-1.882a12.1,12.1,0,0,0,5.91,1.4c3.549,0,5.553-1.178,6.609-2.167,1.785-1.6,2.58-4.163,2.58-8.33V489.48c0-2.113.064-3.533.14-4.878h-2.481l-.154,2.809h-.45l-.068-.129a5.91,5.91,0,0,0-5.6-3.1,7.62,7.62,0,0,0-5.621,2.5,10.265,10.265,0,0,0-2.529,7.149,9.615,9.615,0,0,0,2.173,6.318,7.187,7.187,0,0,0,5.514,2.524,6.437,6.437,0,0,0,5.721-3l.07-.117h.454v2.319a6.958,6.958,0,0,1-1.776,5.185,6.166,6.166,0,0,1-4.469,1.559,10.961,10.961,0,0,1-5.33-1.342Zm7.026-8.817a5.193,5.193,0,0,1-4.315-2.073,8.106,8.106,0,0,1-1.429-4.864c0-4.357,2.324-7.283,5.782-7.283a5.2,5.2,0,0,1,5.167,5.359v3.348a6.14,6.14,0,0,1-.282,1.885,5.183,5.183,0,0,1-4.923,3.628m.038-13.739c-3.171,0-5.3,2.734-5.3,6.8a7.628,7.628,0,0,0,1.332,4.574,4.822,4.822,0,0,0,8.4-1.419,5.647,5.647,0,0,0,.256-1.731v-3.348a4.535,4.535,0,0,0-.18-1.463,4.658,4.658,0,0,0-4.505-3.415" transform="translate(-1821.041 -470.545)" fill="#dcdcdc"></path><rect id="Rectangle_11" data-name="Rectangle 11" width="3.387" height="27.325" transform="translate(152.673 5.119)" fill="#dcdcdc"></rect><path id="Path_37" data-name="Path 37" d="M2247.951,405.277h-3.868V377.471h3.868Zm-3.387-.481h2.906V377.952h-2.906Z" transform="translate(-2091.651 -372.592)" fill="#dcdcdc"></path><path id="Path_38" data-name="Path 38" d="M2349.706,497.138c.077,4.58,3,6.466,6.389,6.466a12.246,12.246,0,0,0,5.157-.962l.578,2.425a15.092,15.092,0,0,1-6.2,1.155c-5.734,0-9.16-3.772-9.16-9.391s3.31-10.045,8.737-10.045c6.081,0,7.7,5.35,7.7,8.775a12.854,12.854,0,0,1-.115,1.578Zm9.929-2.425c.038-2.155-.885-5.5-4.7-5.5-3.426,0-4.927,3.156-5.2,5.5Z" transform="translate(-2186.065 -473.392)" fill="#dcdcdc"></path><path id="Path_39" data-name="Path 39" d="M2352.786,503.614a9.261,9.261,0,0,1-6.9-2.662,9.835,9.835,0,0,1-2.5-6.969,11.351,11.351,0,0,1,2.389-7.283,8.29,8.29,0,0,1,6.588-3,7.2,7.2,0,0,1,6.33,3.211,10.992,10.992,0,0,1,1.608,5.8,11.724,11.724,0,0,1-.1,1.445c-.006.057-.013.11-.018.16l-.024.214h-13.053a6.144,6.144,0,0,0,1.866,4.531,6.273,6.273,0,0,0,4.275,1.454,11.911,11.911,0,0,0,5.063-.943l.262-.111.689,2.895-.181.082a15.252,15.252,0,0,1-6.295,1.176m-.424-19.435a7.824,7.824,0,0,0-6.218,2.829,10.871,10.871,0,0,0-2.277,6.976,9.367,9.367,0,0,0,2.363,6.636,8.793,8.793,0,0,0,6.557,2.514,15.035,15.035,0,0,0,5.916-1.054l-.466-1.955a12.466,12.466,0,0,1-4.988.873,6.206,6.206,0,0,1-6.629-6.7l0-.245h13.116a11,11,0,0,0,.089-1.337,10.5,10.5,0,0,0-1.529-5.539,6.653,6.653,0,0,0-5.928-2.995m4.662,7.928h-10.4l.031-.268c.327-2.845,2.133-5.717,5.435-5.717a4.572,4.572,0,0,1,3.4,1.3,6.483,6.483,0,0,1,1.536,4.445Zm-9.852-.481h9.375a5.843,5.843,0,0,0-1.4-3.863,4.106,4.106,0,0,0-3.056-1.159c-3.282,0-4.612,3.038-4.92,5.022" transform="translate(-2183.218 -470.545)" fill="#dcdcdc"></path><path id="Path_40" data-name="Path 40" d="M2717.508,396.375a38.789,38.789,0,0,1,6.427-.5c3.31,0,5.735.77,7.274,2.155a6.974,6.974,0,0,1,2.271,5.426,7.636,7.636,0,0,1-2,5.542c-1.771,1.886-4.657,2.848-7.928,2.848a11.53,11.53,0,0,1-2.694-.231v10.391h-3.348Zm3.348,12.508a11.231,11.231,0,0,0,2.771.269c4.041,0,6.5-1.963,6.5-5.542,0-3.425-2.425-5.08-6.119-5.08a14.056,14.056,0,0,0-3.156.269Z" transform="translate(-2528.198 -389.563)" fill="#dcdcdc"></path><path id="Path_41" data-name="Path 41" d="M2718.248,419.4h-3.829V393.324l.2-.033a39.538,39.538,0,0,1,6.467-.5c3.3,0,5.8.746,7.435,2.217a7.238,7.238,0,0,1,2.35,5.605,7.878,7.878,0,0,1-2.07,5.709c-1.767,1.883-4.645,2.921-8.1,2.921a13.187,13.187,0,0,1-2.454-.172Zm-3.348-.481h2.867V408.46l.3.075a11.547,11.547,0,0,0,2.636.224c3.321,0,6.074-.984,7.753-2.772a7.419,7.419,0,0,0,1.936-5.377,6.768,6.768,0,0,0-2.187-5.245c-1.548-1.392-3.941-2.1-7.116-2.1a39.3,39.3,0,0,0-6.187.464Zm5.879-12.373a11.289,11.289,0,0,1-2.833-.277l-.179-.047V395.768l.179-.048a14.508,14.508,0,0,1,3.218-.277c4.041,0,6.359,1.939,6.359,5.321a5.384,5.384,0,0,1-1.823,4.3,7.579,7.579,0,0,1-4.921,1.485m-2.531-.7a11.763,11.763,0,0,0,2.531.218c3.98,0,6.263-1.932,6.263-5.3,0-3.121-2.088-4.84-5.878-4.84a15.607,15.607,0,0,0-2.916.219Z" transform="translate(-2525.35 -386.715)" fill="#dcdcdc"></path><rect id="Rectangle_12" data-name="Rectangle 12" width="3.387" height="27.325" transform="translate(209.476 5.119)" fill="#dcdcdc"></rect><path id="Path_42" data-name="Path 42" d="M2977.18,405.277h-3.868V377.471h3.868Zm-3.387-.481h2.906V377.952h-2.906Z" transform="translate(-2764.077 -372.592)" fill="#dcdcdc"></path><path id="Path_43" data-name="Path 43" d="M3086,505.836l-.269-2.348h-.116a6.937,6.937,0,0,1-5.7,2.771,5.307,5.307,0,0,1-5.7-5.349c0-4.5,4-6.966,11.2-6.927V493.6c0-1.539-.424-4.31-4.234-4.31a9.279,9.279,0,0,0-4.849,1.385l-.77-2.232a11.56,11.56,0,0,1,6.119-1.655c5.7,0,7.081,3.887,7.081,7.62v6.966a26.224,26.224,0,0,0,.308,4.464Zm-.5-9.506c-3.695-.077-7.889.577-7.889,4.2a3,3,0,0,0,3.194,3.233,4.634,4.634,0,0,0,4.5-3.118,3.526,3.526,0,0,0,.193-1.078Z" transform="translate(-2857.124 -473.393)" fill="#dcdcdc"></path><path id="Path_44" data-name="Path 44" d="M3077.069,503.653a5.94,5.94,0,0,1-4.437-1.739,5.544,5.544,0,0,1-1.5-3.851,5.943,5.943,0,0,1,1.743-4.377c1.825-1.816,5.093-2.779,9.456-2.791v-.144c0-2.7-1.344-4.07-3.993-4.07a9.024,9.024,0,0,0-4.719,1.347l-.258.167-.931-2.7.158-.1a11.745,11.745,0,0,1,6.25-1.694c2.671,0,4.646.844,5.87,2.508a8.888,8.888,0,0,1,1.452,5.353v6.966a25.474,25.474,0,0,0,.3,4.421l.052.284h-3.582l-.241-2.1a7.241,7.241,0,0,1-5.625,2.523m5.34-12.277c-4.273,0-7.45.915-9.195,2.651a5.476,5.476,0,0,0-1.6,4.036,5.058,5.058,0,0,0,5.456,5.109,6.687,6.687,0,0,0,5.5-2.67l.072-.1h.454l.269,2.348h2.579a27.5,27.5,0,0,1-.263-4.224v-6.966a8.429,8.429,0,0,0-1.358-5.067c-1.129-1.534-2.973-2.312-5.483-2.312a11.545,11.545,0,0,0-5.83,1.516l.61,1.768a9.61,9.61,0,0,1,4.72-1.263,4.161,4.161,0,0,1,3.747,1.686,5.149,5.149,0,0,1,.728,2.865v.627h-.4m-4.455,9.776a3.237,3.237,0,0,1-3.435-3.473A3.608,3.608,0,0,1,3075.59,495c1.261-1.235,3.637-1.826,7.064-1.754l.235,0v3.468a3.779,3.779,0,0,1-.2,1.154,4.889,4.889,0,0,1-4.731,3.282m4.147-7.434c-3,0-5.074.545-6.174,1.623a3.143,3.143,0,0,0-.927,2.338,2.766,2.766,0,0,0,2.954,2.992,4.413,4.413,0,0,0,4.275-2.955,3.289,3.289,0,0,0,.179-1v-3l-.307,0" transform="translate(-2854.277 -470.545)" fill="#dcdcdc"></path><path id="Path_45" data-name="Path 45" d="M3299.254,492.22l4.079,11.007c.424,1.232.885,2.694,1.193,3.81h.077c.346-1.116.731-2.54,1.193-3.887l3.695-10.93h3.579L3307.99,505.5c-2.424,6.389-4.079,9.66-6.388,11.661a9.176,9.176,0,0,1-4.156,2.194l-.847-2.848a8.962,8.962,0,0,0,2.964-1.655,10.278,10.278,0,0,0,2.848-3.772,2.445,2.445,0,0,0,.269-.808,2.961,2.961,0,0,0-.231-.885l-6.889-17.165Z" transform="translate(-3061.223 -478.403)" fill="#dcdcdc"></path><path id="Path_46" data-name="Path 46" d="M3293.064,516.781l-.975-3.281.225-.071a8.733,8.733,0,0,0,2.881-1.609l.006-.005a10.126,10.126,0,0,0,2.778-3.681,2.545,2.545,0,0,0,.249-.711,2.791,2.791,0,0,0-.215-.8l-7.02-17.491h4.218l4.138,11.164c.361,1.049.729,2.205,1.012,3.172q.085-.286.174-.59c.243-.827.519-1.764.824-2.653l3.75-11.093h4.1l-5.205,13.6c-2.26,5.955-3.958,9.592-6.456,11.757a9.257,9.257,0,0,1-4.271,2.249Zm-.38-2.969.717,2.414a9.279,9.279,0,0,0,3.829-2.094c2.422-2.1,4.091-5.684,6.323-11.566l4.955-12.952h-3.058l-3.639,10.766c-.3.88-.576,1.812-.818,2.634-.13.444-.254.862-.374,1.248l-.053.169h-.437l-.049-.177c-.291-1.055-.746-2.509-1.188-3.8l-4.019-10.845H3291.7l6.759,16.842a3.006,3.006,0,0,1,.245.967,2.514,2.514,0,0,1-.29.906,10.4,10.4,0,0,1-2.916,3.86,9.334,9.334,0,0,1-2.819,1.623" transform="translate(-3057.011 -475.557)" fill="#dcdcdc"></path></g></g></svg>