<svg xmlns="http://www.w3.org/2000/svg" xmlns:xlink="http://www.w3.org/1999/xlink" width="277" height="75" viewBox="0 0 277 75"><defs><clipPath id="clip-path"><rect id="Rectangle_803" data-name="Rectangle 803" width="277" height="75" transform="translate(-1122 7392)" fill="#fff"></rect></clipPath></defs><g id="Mask_Group_8" data-name="Mask Group 8" transform="translate(1122 -7392)" clip-path="url(#clip-path)"><g id="Group_4750" data-name="Group 4750" transform="translate(-1128.92 7377.838)"><path id="Path_2" data-name="Path 2" d="M299.423,1744.691H17.348A17.368,17.368,0,0,1,0,1727.343v-68.629a17.368,17.368,0,0,1,17.348-17.348H299.423a17.367,17.367,0,0,1,17.348,17.348v68.629a17.367,17.367,0,0,1-17.348,17.348M17.348,1642.354a16.379,16.379,0,0,0-16.36,16.36v68.629a16.379,16.379,0,0,0,16.36,16.36H299.423a16.379,16.379,0,0,0,16.36-16.36v-68.629a16.379,16.379,0,0,0-16.36-16.36Z" transform="translate(0 -1641.366)" fill="#fff"></path><path id="Path_3" data-name="Path 3" d="M1093.721,2138.489l-2.926,8.863h-3.763l9.574-28.178H1101l9.616,28.178h-3.888l-3.01-8.863Zm9.239-2.843-2.759-8.111c-.627-1.839-1.045-3.512-1.463-5.142h-.084c-.418,1.672-.878,3.386-1.422,5.1l-2.759,8.152Z" transform="translate(-995.051 -2078.744)" fill="#efefef"></path><path id="Path_4" data-name="Path 4" d="M1107.031,2144.787h-4.441l-3.01-8.864h-9.616l-2.927,8.864h-4.316l9.751-28.7h4.764Zm-4.066-.523h3.336l-9.437-27.655h-4.016l-9.4,27.655h3.209l2.927-8.863h10.368Zm-3.585-11.184h-9.216l2.876-8.5c.469-1.478.919-3.094,1.415-5.08l.05-.2h.49l.127.494c.391,1.528.8,3.107,1.381,4.825Zm-8.487-.522h7.758l-2.642-7.765c-.524-1.538-.9-2.96-1.256-4.333-.418,1.626-.809,3-1.215,4.286Z" transform="translate(-991.106 -2075.917)" fill="#efefef"></path><path id="Path_5" data-name="Path 5" d="M1409.828,2214.678c0-2.592-.084-4.683-.167-6.605h3.3l.167,3.47h.083a7.955,7.955,0,0,1,7.191-3.93c4.892,0,8.571,4.139,8.571,10.284,0,7.275-4.432,10.87-9.2,10.87a7.1,7.1,0,0,1-6.229-3.177h-.083v11h-3.637Zm3.637,5.393a8.273,8.273,0,0,0,.167,1.5,5.676,5.676,0,0,0,5.518,4.306c3.888,0,6.146-3.177,6.146-7.818,0-4.055-2.132-7.525-6.021-7.525a5.87,5.87,0,0,0-5.56,4.557,5.961,5.961,0,0,0-.251,1.5Z" transform="translate(-1290.38 -2159.699)" fill="#efefef"></path><path id="Path_6" data-name="Path 6" d="M1410.775,2234.021h-4.16v-22.168c0-2.545-.079-4.571-.167-6.594l-.012-.272h3.825l.146,3.037a8.574,8.574,0,0,1,13.365-.567,11.719,11.719,0,0,1,2.513,7.616,11.88,11.88,0,0,1-2.883,8.342,8.926,8.926,0,0,1-6.576,2.79,7.524,7.524,0,0,1-6.052-2.719Zm-3.637-.523h3.115v-11h.492l.076.126a6.837,6.837,0,0,0,6.005,3.051c4.448,0,8.936-3.28,8.936-10.608a11.2,11.2,0,0,0-2.389-7.278,8.042,8.042,0,0,0-12.888,1.059l-.076.125h-.479l-.167-3.47h-2.781c.083,1.939.156,3.9.156,6.344Zm9.062-10.18a5.92,5.92,0,0,1-5.771-4.5l0-.02a8.512,8.512,0,0,1-.171-1.552v-3.47a6.223,6.223,0,0,1,.26-1.574,6.132,6.132,0,0,1,5.812-4.75A5.62,5.62,0,0,1,1421,2209.8a9.168,9.168,0,0,1,1.6,5.439,9.49,9.49,0,0,1-1.669,5.808,5.737,5.737,0,0,1-4.738,2.271m-5.263-4.624a5.4,5.4,0,0,0,5.263,4.1c3.63,0,5.884-2.9,5.884-7.556a8.649,8.649,0,0,0-1.5-5.128,5.117,5.117,0,0,0-4.258-2.136,5.612,5.612,0,0,0-5.307,4.361,5.757,5.757,0,0,0-.243,1.44v3.47a8,8,0,0,0,.161,1.448" transform="translate(-1287.428 -2156.873)" fill="#efefef"></path><path id="Path_7" data-name="Path 7" d="M1690.943,2214.678c0-2.592-.084-4.683-.167-6.605h3.3l.167,3.47h.083a7.955,7.955,0,0,1,7.191-3.93c4.891,0,8.57,4.139,8.57,10.284,0,7.275-4.432,10.87-9.2,10.87a7.1,7.1,0,0,1-6.229-3.177h-.084v11h-3.637Zm3.637,5.393a8.272,8.272,0,0,0,.167,1.5,5.676,5.676,0,0,0,5.519,4.306c3.888,0,6.146-3.177,6.146-7.818,0-4.055-2.132-7.525-6.02-7.525a5.87,5.87,0,0,0-5.56,4.557,5.961,5.961,0,0,0-.251,1.5Z" transform="translate(-1547.708 -2159.699)" fill="#efefef"></path><path id="Path_8" data-name="Path 8" d="M1691.89,2234.021h-4.16v-22.168c0-2.545-.079-4.571-.167-6.594l-.011-.272h3.824l.146,3.037a8.574,8.574,0,0,1,13.365-.567,11.719,11.719,0,0,1,2.513,7.616,11.881,11.881,0,0,1-2.883,8.342,8.926,8.926,0,0,1-6.576,2.79,7.524,7.524,0,0,1-6.052-2.719Zm-3.637-.523h3.115v-11h.492l.076.126a6.836,6.836,0,0,0,6.005,3.051c4.448,0,8.936-3.28,8.936-10.608a11.2,11.2,0,0,0-2.389-7.278,8.042,8.042,0,0,0-12.888,1.059l-.076.125h-.479l-.167-3.47H1688.1c.083,1.939.156,3.9.156,6.344Zm9.062-10.18a5.92,5.92,0,0,1-5.771-4.5l0-.02a8.534,8.534,0,0,1-.171-1.552v-3.47a6.216,6.216,0,0,1,.26-1.574,6.132,6.132,0,0,1,5.812-4.75,5.621,5.621,0,0,1,4.678,2.348,9.168,9.168,0,0,1,1.6,5.439,9.489,9.489,0,0,1-1.668,5.808,5.737,5.737,0,0,1-4.738,2.271m-5.263-4.624a5.4,5.4,0,0,0,5.263,4.1c3.63,0,5.884-2.9,5.884-7.556a8.649,8.649,0,0,0-1.5-5.128,5.116,5.116,0,0,0-4.258-2.136,5.612,5.612,0,0,0-5.307,4.361,5.757,5.757,0,0,0-.243,1.44v3.47a8.021,8.021,0,0,0,.161,1.448" transform="translate(-1544.756 -2156.873)" fill="#efefef"></path><path id="Path_9" data-name="Path 9" d="M2064.2,2137.945a12.89,12.89,0,0,0,6.522,1.84c3.721,0,5.895-1.965,5.895-4.808,0-2.634-1.505-4.139-5.31-5.6-4.6-1.63-7.442-4.013-7.442-7.985,0-4.39,3.637-7.65,9.114-7.65a12.808,12.808,0,0,1,6.229,1.379l-1,2.969a11.215,11.215,0,0,0-5.351-1.338c-3.846,0-5.309,2.3-5.309,4.223,0,2.634,1.714,3.93,5.6,5.435,4.766,1.84,7.191,4.139,7.191,8.278,0,4.348-3.219,8.11-9.866,8.11a14.56,14.56,0,0,1-7.19-1.8Z" transform="translate(-1888.697 -2073.769)" fill="#efefef"></path><path id="Path_10" data-name="Path 10" d="M2067.165,2140.229a14.933,14.933,0,0,1-7.336-1.842l-.161-.107,1.073-3.562.289.178a12.693,12.693,0,0,0,6.385,1.8c3.475,0,5.634-1.742,5.634-4.546,0-2.464-1.394-3.917-5.142-5.358-5.189-1.84-7.609-4.456-7.609-8.229a7.347,7.347,0,0,1,2.594-5.67,10.242,10.242,0,0,1,6.781-2.242,12.868,12.868,0,0,1,6.358,1.414l.188.106-1.172,3.468-.273-.149a10.91,10.91,0,0,0-5.226-1.306c-2.513,0-5.048,1.225-5.048,3.961,0,2.337,1.321,3.6,5.435,5.192a13.981,13.981,0,0,1,5.482,3.344,7.342,7.342,0,0,1,1.876,5.177,7.813,7.813,0,0,1-2.526,5.879,11.1,11.1,0,0,1-7.6,2.493m-6.884-2.173a14.711,14.711,0,0,0,6.884,1.65,10.591,10.591,0,0,0,7.25-2.357,7.3,7.3,0,0,0,2.355-5.492c0-3.781-2.035-6.109-7.024-8.034-3.742-1.449-5.769-2.783-5.769-5.679a4.22,4.22,0,0,1,1.292-3.021,6.023,6.023,0,0,1,4.279-1.463,11.474,11.474,0,0,1,5.2,1.225l.835-2.47a12.659,12.659,0,0,0-5.911-1.242c-5.212,0-8.853,3.038-8.853,7.389,0,3.521,2.309,5.981,7.268,7.739a11.357,11.357,0,0,1,4.183,2.428,4.644,4.644,0,0,1,1.3,3.421c0,3.079-2.417,5.069-6.156,5.069a13.089,13.089,0,0,1-6.368-1.706Z" transform="translate(-1885.386 -2070.942)"></path><path id="Path_11" data-name="Path 11" d="M2300.252,2144.371v5.812h5.268v2.8h-5.268V2163.9c0,2.508.711,3.93,2.759,3.93a8.209,8.209,0,0,0,2.132-.25l.167,2.759a9.01,9.01,0,0,1-3.261.5,5.1,5.1,0,0,1-3.972-1.546c-1.045-1.087-1.421-2.885-1.421-5.268v-11.037h-3.136v-2.8h3.136v-4.85Z" transform="translate(-2099.451 -2101.809)" fill="#efefef"></path><path id="Path_12" data-name="Path 12" d="M2299.222,2167.415a5.336,5.336,0,0,1-4.165-1.631c-1.017-1.061-1.49-2.791-1.49-5.444v-10.776h-3.136v-3.324h3.136v-4.789l4.118-1.1v5.89h5.268v3.324h-5.268v10.65c0,2.572.747,3.669,2.5,3.669a7.891,7.891,0,0,0,2.063-.242l.31-.084.2,3.266-.173.071a9.288,9.288,0,0,1-3.36.521m-8.268-18.374h3.135v11.3c0,2.513.429,4.13,1.349,5.086l.008.009a4.832,4.832,0,0,0,3.775,1.458,9.417,9.417,0,0,0,2.988-.416l-.137-2.256a8.988,8.988,0,0,1-1.89.184c-2.708,0-3.021-2.392-3.021-4.191v-11.173h5.268v-2.279h-5.268v-5.732l-3.073.822v4.911h-3.135Z" transform="translate(-2096.624 -2098.127)"></path><path id="Path_13" data-name="Path 13" d="M2483.746,2218.023c0,7.483-5.185,10.744-10.076,10.744-5.477,0-9.7-4.013-9.7-10.41,0-6.773,4.432-10.745,10.034-10.745,5.811,0,9.741,4.223,9.741,10.41m-16.054.209c0,4.432,2.55,7.776,6.146,7.776,3.512,0,6.146-3.3,6.146-7.86,0-3.428-1.714-7.776-6.062-7.776s-6.229,4.013-6.229,7.859" transform="translate(-2255.479 -2159.699)" fill="#efefef"></path><path id="Path_14" data-name="Path 14" d="M2470.844,2226.2c-5.865,0-9.961-4.388-9.961-10.671a11.242,11.242,0,0,1,2.991-8.095,10.107,10.107,0,0,1,7.3-2.911,9.616,9.616,0,0,1,7.24,2.968,12.216,12.216,0,0,1-.526,16.075,10.354,10.354,0,0,1-7.049,2.635m.334-21.154a9.589,9.589,0,0,0-6.932,2.754,10.735,10.735,0,0,0-2.841,7.729,10.418,10.418,0,0,0,2.723,7.422,9.206,9.206,0,0,0,6.715,2.726,9.834,9.834,0,0,0,6.7-2.5,10.476,10.476,0,0,0,3.119-7.986c0-6.07-3.81-10.148-9.48-10.148m-.167,18.395a5.8,5.8,0,0,1-4.627-2.326,9.278,9.278,0,0,1-1.78-5.711c0-4.042,2.007-8.121,6.491-8.121a5.586,5.586,0,0,1,4.881,2.722,10.082,10.082,0,0,1,1.442,5.315,9.384,9.384,0,0,1-1.812,5.8,5.785,5.785,0,0,1-4.595,2.321m.084-15.635c-4.123,0-5.968,3.816-5.968,7.6,0,4.354,2.475,7.515,5.885,7.515a5.274,5.274,0,0,0,4.184-2.121,8.866,8.866,0,0,0,1.7-5.477,9.553,9.553,0,0,0-1.359-5.033,5.1,5.1,0,0,0-4.441-2.482" transform="translate(-2252.652 -2156.873)"></path><path id="Path_15" data-name="Path 15" d="M2750.692,2214.386c0-2.383-.042-4.431-.167-6.313h3.219l.125,3.972h.167a6.071,6.071,0,0,1,5.6-4.432,3.975,3.975,0,0,1,1.045.125v3.47a5.521,5.521,0,0,0-1.254-.125c-2.592,0-4.431,1.965-4.934,4.724a10.347,10.347,0,0,0-.167,1.714v10.786h-3.637Z" transform="translate(-2517.785 -2159.699)" fill="#efefef"></path><path id="Path_16" data-name="Path 16" d="M2751.57,2225.743h-4.16V2211.56c0-2.627-.052-4.569-.167-6.3l-.018-.279h3.751l.106,3.361a6.179,6.179,0,0,1,5.536-3.821,4.215,4.215,0,0,1,1.109.133l.2.05v4l-.318-.07a5.255,5.255,0,0,0-1.2-.119,4.279,4.279,0,0,0-3.067,1.252,6.038,6.038,0,0,0-1.609,3.258,10.114,10.114,0,0,0-.163,1.667Zm-3.637-.522h3.115V2214.7a10.664,10.664,0,0,1,.171-1.757c.546-3,2.583-4.943,5.191-4.943a6.243,6.243,0,0,1,.993.071v-2.946a3.769,3.769,0,0,0-.784-.073,5.815,5.815,0,0,0-5.355,4.254l-.06.178h-.608l-.125-3.972h-2.687c.1,1.669.15,3.552.15,6.052Z" transform="translate(-2514.765 -2156.873)"></path><path id="Path_17" data-name="Path 17" d="M2895.338,2218.859c.083,4.975,3.261,7.023,6.94,7.023a13.3,13.3,0,0,0,5.6-1.045l.627,2.634a16.394,16.394,0,0,1-6.731,1.254c-6.229,0-9.95-4.1-9.95-10.2s3.6-10.911,9.49-10.911c6.605,0,8.361,5.811,8.361,9.532a13.947,13.947,0,0,1-.125,1.714Zm10.786-2.634c.042-2.341-.961-5.979-5.1-5.979-3.721,0-5.351,3.428-5.644,5.979Z" transform="translate(-2647.13 -2159.699)" fill="#efefef"></path><path id="Path_18" data-name="Path 18" d="M2898.951,2226.161a10.06,10.06,0,0,1-7.5-2.892,10.682,10.682,0,0,1-2.712-7.57,12.329,12.329,0,0,1,2.6-7.912,9,9,0,0,1,7.156-3.261,7.819,7.819,0,0,1,6.876,3.488,11.941,11.941,0,0,1,1.747,6.305,12.866,12.866,0,0,1-.106,1.568l-.021.175-.026.233h-14.18a6.674,6.674,0,0,0,2.027,4.921,6.813,6.813,0,0,0,4.644,1.579,12.941,12.941,0,0,0,5.5-1.024l.285-.121.749,3.145-.2.089a16.57,16.57,0,0,1-6.838,1.277m-.46-21.112a8.5,8.5,0,0,0-6.755,3.073,11.815,11.815,0,0,0-2.474,7.578,10.17,10.17,0,0,0,2.567,7.209,9.551,9.551,0,0,0,7.122,2.731,16.332,16.332,0,0,0,6.426-1.144l-.506-2.124a13.548,13.548,0,0,1-5.419.948,6.741,6.741,0,0,1-7.2-7.281l0-.265h14.247a11.952,11.952,0,0,0,.1-1.453,11.409,11.409,0,0,0-1.661-6.018,7.227,7.227,0,0,0-6.439-3.253m5.064,8.612h-11.294l.033-.291c.354-3.091,2.317-6.21,5.9-6.21a4.964,4.964,0,0,1,3.693,1.415,7.044,7.044,0,0,1,1.668,4.829Zm-10.7-.522h10.184a6.348,6.348,0,0,0-1.519-4.2,4.461,4.461,0,0,0-3.32-1.259c-3.565,0-5.01,3.3-5.345,5.456" transform="translate(-2644.304 -2156.873)"></path><path id="Path_19" data-name="Path 19" d="M328.922,2125.629c-2.633,7.522-7.976,14.235-12.817,14.235-1.948,0-2.662-1.929-6.751-1.929s-5.767,1.929-7.716,1.929c-6.751,0-14.467-13.03-14.467-23.146s6.751-14.467,12.538-14.467c3.115,0,6.471,1.929,9.644,1.929s5.565-1.929,8.68-1.929a12.127,12.127,0,0,1,9.3,4.369,10.422,10.422,0,0,0,1.591,19.009" transform="translate(-262.872 -2063.252)" fill="#efefef"></path><path id="Path_20" data-name="Path 20" d="M315.314,2139.145a4.253,4.253,0,0,1-2.118-.711,8.534,8.534,0,0,0-4.633-1.218,12.241,12.241,0,0,0-5.253,1.221,6.41,6.41,0,0,1-2.463.708,8.276,8.276,0,0,1-5.155-2.211,22.662,22.662,0,0,1-4.672-5.6,31.075,31.075,0,0,1-4.712-15.405c0-4.618,1.425-8.45,4.121-11.08a12.261,12.261,0,0,1,8.49-3.46,17.544,17.544,0,0,1,4.8.961,17.659,17.659,0,0,0,4.846.968,13.076,13.076,0,0,0,4.357-.967,13.005,13.005,0,0,1,4.323-.962,12.274,12.274,0,0,1,4.964,1.066,12.019,12.019,0,0,1,4.39,3.329l.056.067-.076.043a10.857,10.857,0,0,0-3.916,3.778,10.172,10.172,0,0,0,.471,11.294,10.9,10.9,0,0,0,5.026,3.805l.067.025-.024.067a31.3,31.3,0,0,1-5.594,9.962c-2.451,2.827-4.973,4.322-7.292,4.322m-6.751-2.075a8.659,8.659,0,0,1,4.7,1.236,4.141,4.141,0,0,0,2.048.693c2.276,0,4.759-1.477,7.182-4.271a31.123,31.123,0,0,0,5.543-9.847,11.045,11.045,0,0,1-5.026-3.832,10.318,10.318,0,0,1-.477-11.455,11,11,0,0,1,3.893-3.785,11.972,11.972,0,0,0-9.185-4.276,12.9,12.9,0,0,0-4.275.954,13.192,13.192,0,0,1-4.4.975,17.783,17.783,0,0,1-4.887-.974,17.438,17.438,0,0,0-4.757-.955,12.112,12.112,0,0,0-8.388,3.419c-2.667,2.6-4.077,6.4-4.077,10.975a30.925,30.925,0,0,0,4.691,15.329c2.974,4.849,6.6,7.744,9.7,7.744a6.311,6.311,0,0,0,2.405-.7,12.367,12.367,0,0,1,5.31-1.232" transform="translate(-262.082 -2062.46)"></path><path id="Path_21" data-name="Path 21" d="M533.969,1961.531a9.722,9.722,0,0,0,1.581-2.853,8.843,8.843,0,0,0,.378-4.838,7.385,7.385,0,0,0-1.672.265,13.405,13.405,0,0,0-2.4.925c-3.336,1.67-6.407,4.918-6.635,8.8a5.335,5.335,0,0,0,.094,1.579,5.6,5.6,0,0,0,1.191-.017,10.517,10.517,0,0,0,7.458-3.865" transform="translate(-480.767 -1927.38)" fill="#efefef"></path><path id="Path_22" data-name="Path 22" d="M524.79,1964.766c-.311,0-.321-.041-.333-.089a5.444,5.444,0,0,1-.1-1.6,9.342,9.342,0,0,1,2.168-5.274,13.843,13.843,0,0,1,4.507-3.591,13.477,13.477,0,0,1,2.409-.93,7.682,7.682,0,0,1,1.72-.268.089.089,0,0,1,.043.057,8.938,8.938,0,0,1-.38,4.879,9.791,9.791,0,0,1-1.593,2.875,10.573,10.573,0,0,1-7.51,3.892l-.029,0c-.442.035-.724.049-.9.049m-.2-.156a6.138,6.138,0,0,0,1.093-.038l.03,0a10.428,10.428,0,0,0,7.406-3.838,9.649,9.649,0,0,0,1.569-2.832,8.81,8.81,0,0,0,.384-4.763,11.172,11.172,0,0,0-1.589.284,13.372,13.372,0,0,0-2.382.92,13.7,13.7,0,0,0-4.459,3.552,9.2,9.2,0,0,0-2.136,5.191,5.388,5.388,0,0,0,.084,1.525" transform="translate(-479.975 -1926.626)"></path></g></g></svg>